<?xml version="1.0" encoding="UTF-8"?>
<svg id="Layer_1" data-name="Layer 1" xmlns="http://www.w3.org/2000/svg" viewBox="0 0 1588.61 642.89">
  <defs>
    <style>
      .cls-1 {
        fill: none;
        stroke-width: 3px;
      }

      .cls-1, .cls-2 {
        stroke: #000;
        stroke-miterlimit: 10;
      }

      .cls-2 {
        stroke-width: 2px;
      }
    </style>
  </defs>
  <g>
    <path d="m1105.83,186.57l-101.85,221.48c130.14-23.35,269.5-37.01,399.93-37.01,56.67,0,111.64,2.57,163.46,8.09-200.63-38.89-374.99-111.27-461.54-192.56Z"/>
    <path d="m1084.31,0c-70.02,71.95-245.84,137.03-451.43,178.34v177.92c0,23.93,8.54,41.44,35.47,41.44,29.9,0,34.6-22.21,34.6-41.44v-181.95h131.54v.21h.16l77.63,171.92c14.99,33.24,25.15,56.33,32.29,73.04,9.9-2.04,19.87-4.03,29.93-5.97,7.24-16.66,15.84-35.92,23.75-53.41l88.38-193.41c-47.86-54.92-54.65-112.89-2.31-166.7Z"/>
    <path d="m834.49,351.99c0,50.33-16.05,87.74-56.8,109.34,44.31-13.35,91.82-25.58,141.44-36.4l-84.63-186.94v114.01Z"/>
    <path d="m501.34,349.44v-148.55c-104.98,15.04-213.34,23.53-316.12,23.53-56.67,0-111.64-2.57-163.46-8.09,350.27,67.87,620.51,237.88,483.06,379.11,41.55-42.69,120.37-82.96,220.55-117.29-17.51,3.02-37.44,4.56-60.01,4.56-121.3,0-164.02-49.56-164.02-133.27Z"/>
  </g>
  <path class="cls-2" d="m1.81,212.6c6.69,1.22,13.32,2.47,19.95,3.74-6.45-.66-12.81-1.41-19.16-2.18l-.8-1.57Z"/>
  <g>
    <path class="cls-1" d="m930.14,452.38h10.83v64.19c4.65-8.12,15.38-19.36,36.48-19.36,26.36,0,44.43,20.79,44.43,47.57,0,30.69-18.46,50.56-45.02,50.56-21.11,0-30.92-9.78-35.92-19.19-.18,5.69-.19,12.72-.55,16.59h-10.44c.19-10.84.19-21.72.19-32.49v-107.87Zm80.54,92.61c0-17.37-10.15-37.64-34.67-37.64s-35.77,17.31-35.77,38.74c0,24.68,14.53,39.1,35.95,39.1,25.06,0,34.5-19.88,34.5-40.2Z"/>
    <path class="cls-1" d="m1049.85,548.61c1.11,21.51,15.28,36.97,36.85,36.97,16.42,0,25.98-7.34,31.87-18.19h10.83c-4.67,12.36-17.33,27.95-43.98,27.95-30.65,0-46.58-23.82-46.58-48.7,0-29.11,19.29-49.43,46.03-49.43,34.79,0,46.01,26.36,46.01,48.16,0,1.14,0,2.09,0,3.25h-81.03Zm69.28-9.31c-.92-13.24-7.91-32.37-34.45-32.37-21.06,0-32.45,13.82-34.47,32.37h68.91Z"/>
    <path class="cls-1" d="m1156.09,499.81c21.8,48.5,34.67,76.62,37.98,85.13h.19c3.69-9.11,14.39-36.92,35.02-85.13h11.57l-39.39,92.99c-16.71,39.08-23.36,44.11-42.06,44.11-3,0-7.7-.37-10.86-.93v-10.71c3.19.55,8.68.92,10.75.92,12.46,0,18.34-5.9,28.8-28.83l-43.99-97.55h11.99Z"/>
    <path class="cls-1" d="m1347.84,546.27c0,24.26-14.98,49.06-47.73,49.06-29.66,0-47.14-23.23-47.14-48.88,0-27.28,18.76-49.24,47.89-49.24s46.97,23.65,46.97,49.06Zm-83.66.18c0,19.4,13.08,38.94,36.32,38.94s36.13-17.9,36.13-38.93-13.6-39.31-36.68-39.31-35.77,18.26-35.77,39.3Z"/>
    <path class="cls-1" d="m1372.71,523.23c0-7.81,0-16.36-.19-23.42h10.45c.37,3.51.56,12.36.56,20.07,3.91-10.32,14.28-22.67,35.21-22.67s35.7,13.04,35.7,39.37v56.15h-10.84v-53.87c0-17.86-6.81-31.52-26.37-31.52-22.47,0-33.7,17.65-33.7,41.83v43.55h-10.84v-69.51Z"/>
    <path class="cls-1" d="m1570.93,452.38v112.88c0,9.1,0,18.38.19,27.48h-10.28c-.55-4.6-.74-10.88-.74-16.05-4.47,8.34-13.16,18.65-35.94,18.65-27.47,0-44.98-20.6-44.98-48.32,0-30.14,22-49.81,46.86-49.81s31.46,11.95,34.06,16.93v-61.76h10.84Zm-80.54,94.44c0,18.5,11.45,38.55,34.68,38.55,25.96,0,35.76-16.58,35.76-39.64s-7.77-38.56-34.85-38.56c-23.98,0-35.59,19.91-35.59,39.65Z"/>
  </g>
</svg>